<svg width="30" height="31" viewBox="0 0 30 31" fill="none" xmlns="http://www.w3.org/2000/svg">
<path d="M3.75 26.75V19.5625H5.625V23.5312L10.25 18.9062L11.5938 20.25L6.96875 24.875H10.9375V26.75H3.75ZM19.0625 26.75V24.875H23.0312L18.4375 20.2812L19.7812 18.9375L24.375 23.5312V19.5625H26.25V26.75H19.0625ZM10.2188 12.0625L5.625 7.46875V11.4375H3.75V4.25H10.9375V6.125H6.96875L11.5625 10.7188L10.2188 12.0625ZM19.7812 12.0625L18.4375 10.7188L23.0312 6.125H19.0625V4.25H26.25V11.4375H24.375V7.46875L19.7812 12.0625ZM15.0312 17.5938C14.4469 17.5938 13.9467 17.3888 13.5306 16.9788C13.1144 16.5688 12.9062 16.0758 12.9062 15.5C12.9062 14.9242 13.1144 14.4312 13.5306 14.0212C13.9467 13.6112 14.4469 13.4062 15.0312 13.4062C15.5985 13.4062 16.0841 13.6112 16.4878 14.0212C16.8918 14.4312 17.0938 14.9242 17.0938 15.5C17.0938 16.0758 16.8918 16.5688 16.4878 16.9788C16.0841 17.3888 15.5985 17.5938 15.0312 17.5938Z" fill="#686568"/>
</svg>
