<svg width="30" height="31" viewBox="0 0 30 31" fill="none" xmlns="http://www.w3.org/2000/svg">
<path d="M23.9375 26.75C23.0833 26.75 22.3385 26.4948 21.7031 25.9844C21.0677 25.474 20.6667 24.8542 20.5 24.125H13.8438C12.4688 24.125 11.3281 23.6719 10.4219 22.7656C9.51562 21.8594 9.0625 20.7188 9.0625 19.3438C9.0625 17.9688 9.51562 16.8281 10.4219 15.9219C11.3281 15.0156 12.4688 14.5625 13.8438 14.5625H16.25C17.1042 14.5625 17.8021 14.2917 18.3438 13.75C18.8854 13.2083 19.1562 12.5104 19.1562 11.6562C19.1562 10.8021 18.8854 10.1042 18.3438 9.5625C17.8021 9.02083 17.1042 8.75 16.25 8.75H9.5C9.3125 9.47917 8.90625 10.099 8.28125 10.6094C7.65625 11.1198 6.91667 11.375 6.0625 11.375C5.0625 11.375 4.21875 11.0312 3.53125 10.3438C2.84375 9.65625 2.5 8.8125 2.5 7.8125C2.5 6.8125 2.84375 5.96875 3.53125 5.28125C4.21875 4.59375 5.0625 4.25 6.0625 4.25C6.91667 4.25 7.65625 4.50521 8.28125 5.01562C8.90625 5.52604 9.3125 6.14583 9.5 6.875H16.25C17.625 6.875 18.7656 7.32812 19.6719 8.23438C20.5781 9.14062 21.0312 10.2812 21.0312 11.6562C21.0312 13.0312 20.5781 14.1719 19.6719 15.0781C18.7656 15.9844 17.625 16.4375 16.25 16.4375H13.8438C12.9896 16.4375 12.2917 16.7083 11.75 17.25C11.2083 17.7917 10.9375 18.4896 10.9375 19.3438C10.9375 20.1979 11.2083 20.8958 11.75 21.4375C12.2917 21.9792 12.9896 22.25 13.8438 22.25H20.5C20.6875 21.5208 21.0938 20.901 21.7188 20.3906C22.3438 19.8802 23.0833 19.625 23.9375 19.625C24.9375 19.625 25.7812 19.9688 26.4688 20.6562C27.1562 21.3438 27.5 22.1875 27.5 23.1875C27.5 24.1875 27.1562 25.0312 26.4688 25.7188C25.7812 26.4062 24.9375 26.75 23.9375 26.75ZM6.0625 9.5C6.54167 9.5 6.94271 9.33854 7.26562 9.01562C7.58854 8.69271 7.75 8.29167 7.75 7.8125C7.75 7.33333 7.58854 6.93229 7.26562 6.60938C6.94271 6.28646 6.54167 6.125 6.0625 6.125C5.58333 6.125 5.18229 6.28646 4.85938 6.60938C4.53646 6.93229 4.375 7.33333 4.375 7.8125C4.375 8.29167 4.53646 8.69271 4.85938 9.01562C5.18229 9.33854 5.58333 9.5 6.0625 9.5Z" fill="#686568"/>
</svg>
