<svg width="30" height="31" viewBox="0 0 30 31" fill="none" xmlns="http://www.w3.org/2000/svg">
<path d="M7.28125 27.375C6.13333 27.375 5.15365 26.9695 4.34219 26.1584C3.53073 25.3474 3.125 24.3682 3.125 23.2209C3.125 22.0736 3.53052 21.0938 4.34156 20.2812C5.1526 19.4688 6.13177 19.0625 7.27906 19.0625C8.42635 19.0625 9.40625 19.4682 10.2188 20.2797C11.0312 21.0911 11.4375 22.0708 11.4375 23.2188C11.4375 23.6771 11.3646 24.1198 11.2188 24.5469C11.0729 24.974 10.8646 25.3646 10.5938 25.7188V25.1875C11.2812 25.5 12 25.7344 12.75 25.8906C13.5 26.0469 14.25 26.125 15 26.125C17.9662 26.125 20.4786 25.0957 22.5372 23.0372C24.5957 20.9784 25.625 18.466 25.625 15.5H27.5C27.5 17.2292 27.1719 18.8542 26.5156 20.375C25.8594 21.8958 24.9688 23.2188 23.8438 24.3438C22.7188 25.4688 21.3958 26.3594 19.875 27.0156C18.3542 27.6719 16.7292 28 15 28C14.034 28 13.0893 27.8906 12.1659 27.6719C11.2428 27.4531 10.3438 27.1354 9.46875 26.7188C9.13542 26.9375 8.78646 27.1016 8.42188 27.2109C8.05729 27.3203 7.67708 27.375 7.28125 27.375ZM15.0022 19.6562C13.8549 19.6562 12.875 19.2507 12.0625 18.4397C11.25 17.6286 10.8438 16.6495 10.8438 15.5022C10.8438 14.3549 11.2493 13.375 12.0603 12.5625C12.8714 11.75 13.8505 11.3438 14.9978 11.3438C16.1451 11.3438 17.125 11.7493 17.9375 12.5603C18.75 13.3714 19.1562 14.3505 19.1562 15.4978C19.1562 16.6451 18.7507 17.625 17.9397 18.4375C17.1286 19.25 16.1495 19.6562 15.0022 19.6562ZM2.5 15.5C2.5 13.7708 2.82812 12.1458 3.48438 10.625C4.14062 9.10417 5.03125 7.78125 6.15625 6.65625C7.28125 5.53125 8.60417 4.64062 10.125 3.98438C11.6458 3.32812 13.2708 3 15 3C15.966 3 16.9107 3.10938 17.8341 3.32812C18.7572 3.54688 19.6562 3.86458 20.5312 4.28125C20.8646 4.07292 21.2135 3.91667 21.5781 3.8125C21.9427 3.70833 22.3229 3.65625 22.7188 3.65625C23.8581 3.65625 24.8304 4.05958 25.6356 4.86625C26.441 5.67292 26.8438 6.64687 26.8438 7.78812C26.8438 8.92937 26.4404 9.90625 25.6338 10.7188C24.8271 11.5312 23.8531 11.9375 22.7119 11.9375C21.5706 11.9375 20.5938 11.5318 19.7812 10.7203C18.9688 9.90885 18.5625 8.92917 18.5625 7.78125C18.5625 7.32292 18.6354 6.88021 18.7812 6.45312C18.9271 6.02604 19.1354 5.63542 19.4062 5.28125V5.8125C18.7188 5.5 18 5.26562 17.25 5.10938C16.5 4.95312 15.75 4.875 15 4.875C12.034 4.875 9.52156 5.90427 7.46281 7.96281C5.40427 10.0214 4.375 12.5338 4.375 15.5H2.5Z" fill="#686568"/>
</svg>
