<svg width="991" height="380" viewBox="0 0 991 380" fill="none" xmlns="http://www.w3.org/2000/svg">
<path d="M195.658 375.882C195.48 375.882 195.31 375.825 195.156 375.72L193.035 374.222C192.881 374.117 177.41 363.203 172.73 358.451C170.156 355.844 167.363 351.755 164.408 347.432C161.736 343.53 158.999 339.522 156.959 337.482C154.935 335.458 150.952 332.746 147.106 330.123C142.702 327.119 138.565 324.302 135.95 321.678C133.278 319.015 130.388 314.789 127.32 310.312C124.721 306.523 122.041 302.612 120.057 300.58C115.629 296.038 99.2668 284.113 99.1049 284L95.0164 281.028C94.7897 280.866 94.6602 280.607 94.6602 280.332C94.6602 280.057 94.7897 279.798 95.0164 279.636L99.1049 276.665C99.2668 276.543 115.629 264.618 120.057 260.076C122.033 258.052 124.696 254.158 127.271 250.401C130.339 245.916 133.23 241.698 135.893 239.042C138.516 236.419 142.662 233.594 147.05 230.598C150.903 227.975 154.879 225.263 156.903 223.239C158.951 221.19 161.703 217.159 164.367 213.264C167.33 208.933 170.123 204.844 172.698 202.238C177.296 197.566 192.396 186.887 193.035 186.434L195.156 184.936C195.31 184.831 195.48 184.774 195.658 184.774C195.836 184.774 196.006 184.831 196.16 184.936L198.281 186.434C198.921 186.879 213.947 197.493 218.586 202.205C221.153 204.812 223.946 208.893 226.901 213.216C229.573 217.118 232.317 221.142 234.357 223.182C236.381 225.206 240.357 227.918 244.21 230.541C248.614 233.545 252.752 236.362 255.375 238.986C258.046 241.657 260.937 245.875 263.989 250.336C266.58 254.109 269.251 258.019 271.235 260.051C275.671 264.601 292.058 276.551 292.22 276.665L296.308 279.636C296.535 279.798 296.664 280.057 296.664 280.332C296.664 280.607 296.535 280.866 296.308 281.028L292.22 284C292.058 284.121 275.688 296.046 271.267 300.588C269.284 302.62 266.62 306.515 264.037 310.287C260.977 314.764 258.087 318.974 255.431 321.63C252.8 324.261 248.655 327.087 244.267 330.074C240.405 332.713 236.43 335.417 234.414 337.433C232.366 339.482 229.613 343.505 226.949 347.4C223.986 351.739 221.185 355.828 218.619 358.435C213.988 363.13 198.921 373.785 198.281 374.238L196.16 375.736C196.015 375.841 195.836 375.898 195.658 375.898V375.882ZM109.411 280.316C114.746 284.315 123.215 290.808 126.559 294.233C129.093 296.832 131.87 300.88 134.808 305.163C137.521 309.122 140.306 313.178 142.37 315.242C144.394 317.266 148.377 319.978 152.223 322.601C156.611 325.597 160.764 328.423 163.387 331.054C166.035 333.701 168.885 337.879 171.913 342.307C174.511 346.112 177.199 350.047 179.199 352.079C181.701 354.613 189.246 360.313 195.658 364.936C202.078 360.305 209.632 354.597 212.15 352.047C214.15 350.015 216.846 346.08 219.453 342.267C222.489 337.83 225.346 333.644 227.994 330.997C230.617 328.374 234.762 325.548 239.15 322.553C243.004 319.93 246.979 317.209 249.003 315.194C251.068 313.129 253.845 309.065 256.532 305.138C259.471 300.847 262.232 296.824 264.75 294.233C268.102 290.792 276.562 284.307 281.897 280.308C276.554 276.308 268.077 269.799 264.718 266.358C262.2 263.767 259.431 259.736 256.508 255.469C253.788 251.502 251.011 247.438 248.938 245.373C246.914 243.349 242.939 240.645 239.094 238.022C234.697 235.027 230.552 232.201 227.921 229.57C225.282 226.93 222.424 222.753 219.404 218.324C216.797 214.511 214.109 210.577 212.109 208.544C209.6 206.002 202.062 200.303 195.65 195.688C189.222 200.319 181.668 206.027 179.159 208.577C177.159 210.609 174.463 214.544 171.856 218.357C168.82 222.802 165.962 226.979 163.315 229.626C160.691 232.25 156.546 235.075 152.158 238.071C148.313 240.694 144.329 243.406 142.305 245.438C140.241 247.503 137.456 251.567 134.768 255.485C131.837 259.76 129.076 263.8 126.55 266.391C123.199 269.831 114.738 276.316 109.403 280.316H109.411Z" fill="#FCFAFA"/>
<path d="M195.657 375.015L193.536 373.517C192.896 373.072 177.895 362.458 173.345 357.843C170.827 355.293 168.058 351.237 165.127 346.938C162.447 343.02 159.678 338.963 157.573 336.858C155.493 334.778 151.477 332.041 147.591 329.386C143.235 326.415 139.131 323.613 136.564 321.047C133.949 318.432 131.075 314.238 128.031 309.802C125.416 305.988 122.72 302.045 120.68 299.957C116.154 295.318 99.7839 283.392 99.6139 283.279L95.5254 280.308L99.6139 277.336C99.7758 277.215 116.154 265.298 120.68 260.65C122.712 258.57 125.4 254.635 127.999 250.838C131.035 246.409 133.893 242.224 136.499 239.617C139.066 237.05 143.179 234.241 147.534 231.27C151.412 228.622 155.428 225.886 157.509 223.805C159.614 221.7 162.391 217.636 165.078 213.71C168.017 209.411 170.794 205.354 173.312 202.796C177.87 198.173 192.896 187.543 193.536 187.098L195.657 185.6L197.778 187.098C198.418 187.543 213.42 198.157 217.97 202.772C220.488 205.322 223.257 209.378 226.196 213.677C228.875 217.596 231.644 221.652 233.749 223.757C235.83 225.837 239.845 228.574 243.732 231.221C248.087 234.193 252.2 236.994 254.766 239.56C257.373 242.167 260.247 246.353 263.283 250.789C265.89 254.595 268.586 258.529 270.618 260.618C275.152 265.265 291.547 277.215 291.717 277.328L295.805 280.3L291.717 283.271C291.555 283.392 275.177 295.31 270.651 299.957C268.619 302.037 265.931 305.972 263.332 309.769C260.296 314.198 257.438 318.383 254.831 320.99C252.265 323.557 248.152 326.366 243.796 329.329C239.91 331.977 235.903 334.713 233.822 336.794C231.717 338.899 228.94 342.963 226.252 346.889C223.313 351.188 220.536 355.253 218.019 357.803C213.46 362.426 198.434 373.056 197.795 373.501L195.673 374.999L195.657 375.015ZM107.961 280.316C113.304 284.299 122.445 291.262 125.934 294.84C128.412 297.382 131.172 301.406 134.087 305.656C136.807 309.623 139.625 313.728 141.754 315.857C143.834 317.938 147.85 320.674 151.728 323.322C156.084 326.293 160.197 329.094 162.771 331.669C165.354 334.252 168.195 338.405 171.191 342.793C173.814 346.63 176.526 350.597 178.575 352.678C181.505 355.649 190.532 362.312 195.649 365.996C200.774 362.312 209.825 355.625 212.756 352.646C214.812 350.557 217.533 346.582 220.156 342.744C223.159 338.348 226.001 334.195 228.592 331.604C231.158 329.038 235.271 326.228 239.627 323.265C243.513 320.618 247.529 317.881 249.609 315.801C251.73 313.679 254.532 309.583 257.244 305.624C260.15 301.382 262.895 297.374 265.364 294.832C268.854 291.253 277.994 284.291 283.337 280.308C277.986 276.316 268.829 269.337 265.332 265.751C262.854 263.209 260.11 259.193 257.195 254.943C254.483 250.984 251.674 246.879 249.544 244.758C247.464 242.677 243.448 239.941 239.57 237.293C235.215 234.322 231.102 231.521 228.535 228.954C225.953 226.372 223.111 222.218 220.115 217.83C217.492 213.993 214.78 210.026 212.732 207.945C209.801 204.974 200.774 198.311 195.657 194.627C190.532 198.311 181.481 204.998 178.55 207.978C176.494 210.058 173.782 214.033 171.151 217.879C168.147 222.275 165.305 226.437 162.714 229.027C160.148 231.594 156.035 234.395 151.68 237.366C147.793 240.014 143.778 242.75 141.697 244.831C139.576 246.952 136.775 251.049 134.063 255.008C131.156 259.25 128.411 263.257 125.942 265.799C122.453 269.378 113.312 276.341 107.969 280.324L107.961 280.316Z" fill="#FCFAFA"/>
<path d="M101.768 285.109C101.59 285.109 101.42 285.052 101.266 284.947L99.1448 283.449C98.5053 283.004 83.4871 272.39 78.84 267.678C76.2654 265.063 73.4723 260.983 70.5172 256.659C67.8617 252.773 65.1091 248.749 63.0689 246.701C61.0449 244.677 57.0697 241.965 53.216 239.342C48.8198 236.346 44.6747 233.521 42.0515 230.898C39.3798 228.226 36.4815 224 33.4131 219.523C30.8142 215.734 28.1344 211.831 26.159 209.799C21.6657 205.193 5.36838 193.332 5.20646 193.211L1.11795 190.239C0.891257 190.077 0.761719 189.818 0.761719 189.543C0.761719 189.268 0.891257 189.009 1.11795 188.847L5.20646 185.876C5.36838 185.754 21.7305 173.829 26.159 169.287C28.1425 167.255 30.8061 163.36 33.3888 159.588C36.4491 155.127 39.3313 150.909 41.9949 148.245C44.618 145.622 48.7632 142.796 53.1431 139.809C56.9968 137.178 60.9801 134.466 63.0041 132.442C65.0524 130.393 67.805 126.37 70.4605 122.475C73.4237 118.136 76.2249 114.047 78.7995 111.432C83.398 106.769 98.4971 96.0823 99.1367 95.6289L101.258 94.1312C101.412 94.0259 101.582 93.9692 101.76 93.9692C101.938 93.9692 102.108 94.0259 102.262 94.1312L104.383 95.6289C104.537 95.7423 120.025 106.672 124.688 111.4C127.254 114.007 130.047 118.087 133.002 122.411C135.666 126.305 138.411 130.329 140.459 132.377C142.483 134.401 146.466 137.113 150.312 139.736C154.7 142.724 158.845 145.549 161.468 148.18C164.14 150.852 167.03 155.07 170.09 159.539C172.681 163.32 175.353 167.222 177.336 169.254C181.83 173.869 198.159 185.754 198.321 185.867L202.41 188.839C202.637 189.001 202.766 189.26 202.766 189.535C202.766 189.81 202.637 190.069 202.41 190.231L198.321 193.202C198.159 193.324 181.846 205.193 177.369 209.791C175.385 211.823 172.722 215.718 170.139 219.49C167.079 223.967 164.188 228.177 161.533 230.833C158.902 233.464 154.757 236.29 150.368 239.277C146.515 241.9 142.54 244.62 140.516 246.636C138.467 248.685 135.715 252.708 133.051 256.603C130.08 260.942 127.287 265.031 124.72 267.637C120.089 272.333 105.023 282.988 104.383 283.441L102.262 284.939C102.116 285.044 101.938 285.101 101.76 285.101L101.768 285.109ZM15.5289 189.543C20.8642 193.534 29.3246 200.027 32.6763 203.46C35.2104 206.059 37.9873 210.107 40.9181 214.39C43.6141 218.324 46.4072 222.397 48.4879 224.469C50.5119 226.493 54.4951 229.206 58.3408 231.829C62.7288 234.824 66.874 237.65 69.5052 240.273C72.1445 242.912 74.9943 247.082 78.0142 251.502C80.6292 255.331 83.3171 259.266 85.3168 261.29C87.8266 263.832 95.364 269.532 101.776 274.147C108.196 269.516 115.758 263.808 118.268 261.258C120.267 259.226 122.963 255.291 125.57 251.478C128.598 247.041 131.464 242.855 134.112 240.208C136.735 237.585 140.872 234.759 145.26 231.772C149.122 229.141 153.097 226.429 155.121 224.405C157.193 222.332 159.97 218.276 162.65 214.349C165.573 210.075 168.334 206.043 170.868 203.444C174.219 200.003 182.68 193.51 188.015 189.519C182.672 185.519 174.195 179.018 170.835 175.569C168.317 172.979 165.549 168.947 162.626 164.672C159.914 160.721 157.137 156.657 155.064 154.584C153.04 152.56 149.065 149.856 145.227 147.233C140.823 144.229 136.678 141.404 134.055 138.781C131.416 136.142 128.558 131.964 125.53 127.535C122.923 123.722 120.235 119.788 118.235 117.764C115.726 115.221 108.188 109.522 101.776 104.907C95.3559 109.538 87.7942 115.246 85.2844 117.796C83.2847 119.828 80.5887 123.763 77.9818 127.576C74.9539 132.013 72.0879 136.198 69.4405 138.846C66.8173 141.469 62.6803 144.294 58.3003 147.282C54.4385 149.913 50.4552 152.633 48.4312 154.657C46.3586 156.73 43.5817 160.786 40.8938 164.712C37.9549 169.003 35.1942 173.035 32.6763 175.618C29.3327 179.051 20.8642 185.544 15.5289 189.543Z" fill="#FCFAFA"/>
<path d="M101.769 284.243L99.6477 282.745C99.0081 282.299 84.0061 271.686 79.4562 267.071C76.9383 264.521 74.1695 260.464 71.2387 256.165C68.5589 252.247 65.79 248.191 63.6851 246.086C61.5801 243.981 57.5888 241.269 53.7027 238.621C49.347 235.65 45.2342 232.849 42.6677 230.282C40.0527 227.667 37.1786 223.474 34.1345 219.037C31.5195 215.224 28.8235 211.289 26.7833 209.192C22.2576 204.553 5.88741 192.628 5.7174 192.514L1.62891 189.543L5.7174 186.572C5.87932 186.45 22.2576 174.533 26.7833 169.886C28.8154 167.805 31.5033 163.871 34.1021 160.074C37.1381 155.645 39.996 151.459 42.603 148.852C45.2099 146.246 49.2822 143.477 53.6379 140.514C57.524 137.866 61.5315 135.13 63.6122 133.049C65.7172 130.944 68.4941 126.88 71.182 122.953C74.1209 118.654 76.8978 114.598 79.4157 112.04C83.9737 107.417 99 96.7868 99.6396 96.3415L101.761 94.8438L103.882 96.3415C104.521 96.7868 119.523 107.401 124.073 112.015C126.591 114.566 129.36 118.622 132.291 122.921C134.971 126.839 137.74 130.895 139.845 133C141.925 135.081 145.941 137.818 149.827 140.465C154.183 143.436 158.295 146.237 160.862 148.804C163.469 151.411 166.343 155.605 169.379 160.033C171.986 163.838 174.682 167.773 176.714 169.862C181.248 174.509 197.642 186.45 197.812 186.572L201.901 189.543L197.812 192.514C197.65 192.636 181.272 204.553 176.746 209.2C174.714 211.281 172.026 215.216 169.427 219.013C166.391 223.441 163.525 227.627 160.927 230.234C158.36 232.8 154.247 235.61 149.892 238.573C146.006 241.22 141.998 243.957 139.917 246.037C137.812 248.142 135.035 252.207 132.348 256.133C129.409 260.432 126.632 264.496 124.114 267.047C119.556 271.669 104.53 282.299 103.89 282.745L101.769 284.243ZM14.0806 189.543C19.424 193.526 28.5644 200.489 32.0538 204.067C34.5312 206.61 37.2839 210.633 40.2065 214.884C42.9268 218.851 45.7442 222.956 47.8735 225.093C49.9542 227.174 53.9698 229.91 57.8478 232.557C62.2035 235.529 66.3163 238.33 68.8827 240.904C71.4492 243.479 74.3071 247.64 77.3026 252.036C79.9257 255.874 82.6379 259.841 84.6862 261.922C87.617 264.893 96.6441 271.556 101.761 275.24C106.886 271.556 115.937 264.869 118.868 261.889C120.924 259.809 123.644 255.834 126.267 251.988C129.271 247.592 132.113 243.438 134.704 240.848C137.27 238.281 141.383 235.48 145.738 232.509C149.625 229.861 153.64 227.125 155.721 225.044C157.842 222.923 160.643 218.827 163.355 214.868C166.262 210.625 169.006 206.618 171.476 204.084C174.965 200.497 184.106 193.543 189.449 189.559C184.097 185.568 174.941 178.589 171.443 175.003C168.966 172.46 166.221 168.445 163.307 164.203C160.595 160.235 157.785 156.139 155.656 154.01C153.575 151.929 149.56 149.192 145.682 146.545C141.326 143.574 137.213 140.773 134.647 138.206C132.056 135.624 129.223 131.47 126.227 127.082C123.604 123.245 120.892 119.278 118.843 117.197C115.913 114.226 106.886 107.563 101.769 103.879C96.6441 107.563 87.5927 114.25 84.6619 117.229C82.6055 119.318 79.8934 123.285 77.2621 127.131C74.2585 131.527 71.4168 135.688 68.8261 138.279C66.2353 140.87 62.1468 143.647 57.7911 146.618C53.905 149.265 49.8894 152.002 47.8087 154.082C45.6876 156.204 42.8863 160.3 40.1742 164.259C37.2677 168.502 34.5231 172.509 32.0538 175.051C28.5644 178.63 19.424 185.592 14.0806 189.576V189.543Z" fill="#FCFAFA"/>
<path d="M195.659 194.902C195.48 194.902 195.31 194.846 195.157 194.741L193.035 193.243C192.882 193.137 177.41 182.224 172.731 177.472C170.156 174.865 167.363 170.776 164.408 166.453C161.752 162.567 159 158.543 156.959 156.495C154.935 154.471 150.952 151.759 147.099 149.127C142.694 146.124 138.565 143.306 135.942 140.683C133.27 138.012 130.372 133.785 127.312 129.316C124.721 125.536 122.041 121.625 120.05 119.585C115.629 115.051 99.259 103.118 99.0971 102.996L95.0086 100.025C94.7819 99.863 94.6523 99.6039 94.6523 99.3287C94.6523 99.0534 94.7819 98.7943 95.0086 98.6324L99.0971 95.6611C99.259 95.5397 115.621 83.6142 120.05 79.0724C122.025 77.0484 124.689 73.1542 127.271 69.3895C130.34 64.9043 133.23 60.6944 135.885 58.0308C138.509 55.4076 142.662 52.574 147.05 49.5866C150.904 46.9554 154.879 44.2432 156.903 42.2273C158.951 40.179 161.704 36.1472 164.367 32.253C167.331 27.9216 170.132 23.8331 172.698 21.2181C177.297 16.5547 192.396 5.86794 193.035 5.41456L195.157 3.91681C195.31 3.81156 195.48 3.75488 195.659 3.75488C195.837 3.75488 196.007 3.81156 196.161 3.91681L198.282 5.41456C198.436 5.51981 213.907 16.4333 218.587 21.1857C221.161 23.7926 223.954 27.8811 226.909 32.2125C229.565 36.0986 232.309 40.1223 234.358 42.1625C236.382 44.1865 240.357 46.8987 244.202 49.5137C248.607 52.5173 252.752 55.3429 255.375 57.966C258.047 60.6377 260.937 64.8557 263.997 69.3247C266.596 73.1137 269.26 77.0079 271.243 79.04C275.68 83.5899 292.066 95.5397 292.228 95.6531L296.317 98.6243C296.543 98.7862 296.673 99.0453 296.673 99.3206C296.673 99.5958 296.543 99.8549 296.317 100.017L292.228 102.988C292.066 103.11 275.696 115.035 271.276 119.577C269.292 121.609 266.628 125.503 264.046 129.276C260.977 133.753 258.095 137.963 255.44 140.618C252.809 143.25 248.663 146.075 244.275 149.063C240.422 151.694 236.446 154.406 234.422 156.422C232.374 158.478 229.621 162.502 226.958 166.388C223.995 170.72 221.202 174.808 218.627 177.423C214.029 182.095 198.929 192.773 198.29 193.227L196.169 194.724C196.015 194.83 195.845 194.886 195.667 194.886L195.659 194.902ZM109.411 99.3449C114.747 103.336 123.207 109.829 126.559 113.262C129.093 115.861 131.87 119.909 134.801 124.192C137.505 128.134 140.29 132.199 142.362 134.271C144.386 136.295 148.37 139.007 152.215 141.63C156.603 144.626 160.748 147.452 163.38 150.075C166.019 152.714 168.869 156.883 171.889 161.304C174.512 165.133 177.192 169.068 179.191 171.092C181.693 173.626 189.238 179.326 195.65 183.949C202.071 179.318 209.632 173.61 212.142 171.06C214.142 169.036 216.83 165.101 219.437 161.288C222.481 156.835 225.339 152.649 227.986 150.01C230.609 147.379 234.754 144.561 239.142 141.566C243.004 138.935 246.979 136.222 248.995 134.206C251.06 132.142 253.837 128.078 256.525 124.151C259.455 119.868 262.216 115.836 264.742 113.246C268.086 109.813 276.554 103.32 281.89 99.3206C276.546 95.3211 268.07 88.82 264.71 85.3711C262.184 82.7803 259.415 78.7404 256.492 74.4657C253.788 70.5229 251.011 66.4587 248.939 64.3862C246.915 62.3621 242.931 59.6499 239.086 57.0268C234.698 54.0313 230.553 51.2058 227.921 48.5827C225.274 45.9353 222.416 41.7577 219.396 37.3292C216.797 33.524 214.109 29.5893 212.11 27.5572C209.608 25.0151 202.063 19.3236 195.65 14.7007C189.23 19.3317 181.669 25.0394 179.159 27.5896C177.159 29.6217 174.463 33.5645 171.856 37.3696C168.828 41.7982 165.962 45.9838 163.315 48.6393C160.692 51.2625 156.547 54.088 152.159 57.0835C148.313 59.7066 144.33 62.4188 142.306 64.4509C140.241 66.5154 137.464 70.5715 134.776 74.4981C131.846 78.7809 129.085 82.8127 126.559 85.4035C123.215 88.8362 114.747 95.3292 109.411 99.3287V99.3449Z" fill="#FCFAFA"/>
<path d="M195.657 194.036L193.536 192.539C192.896 192.093 177.895 181.479 173.345 176.865C170.827 174.314 168.058 170.258 165.127 165.967C162.447 162.049 159.678 157.993 157.573 155.888C155.493 153.807 151.477 151.071 147.591 148.415C143.235 145.444 139.131 142.643 136.564 140.076C133.949 137.461 131.075 133.267 128.031 128.831C125.416 125.018 122.72 121.075 120.68 118.986C116.154 114.347 99.7839 102.422 99.6139 102.308L95.5254 99.3369L99.6139 96.3657C99.7758 96.2442 116.154 84.3268 120.68 79.6797C122.712 77.599 125.4 73.6644 127.999 69.8673C131.035 65.4388 133.893 61.2531 136.499 58.6462C139.066 56.0797 143.179 53.2704 147.534 50.2992C151.412 47.6518 155.428 44.9153 157.509 42.8346C159.614 40.7296 162.391 36.6654 165.078 32.7389C168.017 28.4399 170.794 24.3838 173.312 21.8254C177.87 17.2026 192.896 6.57245 193.536 6.12717L195.657 4.62939L197.778 6.12717C198.418 6.57245 213.42 17.1864 217.97 21.8011C220.488 24.3514 223.257 28.4075 226.196 32.7065C228.875 36.625 231.644 40.6811 233.749 42.786C235.83 44.8667 239.845 47.6032 243.732 50.2506C248.087 53.2218 252.2 56.0231 254.766 58.5895C257.373 61.1965 260.247 65.3902 263.283 69.8187C265.89 73.6239 268.586 77.5585 270.618 79.6473C275.152 84.2944 291.547 96.2442 291.717 96.3576L295.805 99.3288L291.717 102.3C291.555 102.421 275.177 114.339 270.651 118.986C268.619 121.067 265.931 125.001 263.332 128.798C260.296 133.227 257.438 137.413 254.831 140.02C252.265 142.586 248.152 145.395 243.796 148.358C239.91 151.006 235.903 153.742 233.822 155.823C231.717 157.928 228.94 161.992 226.252 165.919C223.313 170.218 220.536 174.282 218.019 176.832C213.46 181.455 198.434 192.085 197.795 192.53L195.673 194.028L195.657 194.036ZM107.961 99.345C113.304 103.328 122.445 110.291 125.934 113.869C128.412 116.411 131.172 120.435 134.087 124.686C136.807 128.653 139.625 132.757 141.754 134.895C143.834 136.975 147.85 139.712 151.728 142.359C156.084 145.331 160.197 148.132 162.771 150.706C165.354 153.289 168.195 157.442 171.191 161.838C173.814 165.676 176.526 169.643 178.575 171.724C181.505 174.695 190.532 181.358 195.649 185.042C200.774 181.358 209.825 174.671 212.756 171.691C214.812 169.602 217.533 165.635 220.156 161.79C223.159 157.394 226.001 153.24 228.592 150.65C231.158 148.083 235.271 145.282 239.627 142.311C243.513 139.663 247.529 136.927 249.609 134.846C251.73 132.725 254.532 128.628 257.244 124.669C260.15 120.427 262.895 116.42 265.364 113.877C268.854 110.299 277.994 103.336 283.337 99.3531C277.986 95.3617 268.829 88.383 265.332 84.7964C262.854 82.2543 260.11 78.2386 257.195 73.9963C254.483 70.0292 251.674 65.9326 249.544 63.8034C247.464 61.7227 243.448 58.9862 239.57 56.3388C235.215 53.3676 231.102 50.5663 228.535 47.9999C225.953 45.4173 223.111 41.264 220.115 36.8759C217.492 33.0384 214.78 29.0714 212.724 26.9907C209.793 24.0194 200.766 17.3564 195.649 13.6727C190.524 17.3564 181.473 24.0437 178.542 27.023C176.486 29.1118 173.774 33.0789 171.142 36.9245C168.139 41.3207 165.297 45.482 162.706 48.0728C160.14 50.6392 156.027 53.4404 151.671 56.4117C147.785 59.0591 143.77 61.7956 141.689 63.8762C139.568 65.9974 136.767 70.094 134.054 74.053C131.148 78.2953 128.403 82.3028 125.934 84.845C122.445 88.4234 113.304 95.386 107.961 99.3693V99.345Z" fill="#FCFAFA"/>
<path d="M195.658 281.182C195.48 281.182 195.31 281.125 195.156 281.02L193.035 279.522C192.396 279.077 177.377 268.471 172.73 263.751C170.156 261.144 167.363 257.056 164.408 252.733C161.752 248.847 158.999 244.823 156.959 242.774C154.935 240.75 150.952 238.038 147.106 235.415C142.71 232.42 138.573 229.594 135.95 226.971C133.278 224.299 130.38 220.073 127.32 215.604C124.729 211.823 122.049 207.913 120.057 205.873C115.637 201.339 99.2668 189.405 99.1049 189.292L95.0164 186.321C94.7897 186.159 94.6602 185.9 94.6602 185.625C94.6602 185.349 94.7897 185.09 95.0164 184.928L99.1049 181.957C99.2668 181.836 115.564 169.983 120.057 165.368C122.033 163.344 124.696 159.45 127.271 155.693C130.339 151.208 133.23 146.99 135.893 144.335C138.516 141.712 142.662 138.886 147.05 135.891C150.903 133.267 154.879 130.555 156.903 128.531C158.959 126.475 161.703 122.451 164.367 118.557C167.33 114.217 170.131 110.129 172.698 107.522C177.296 102.859 192.396 92.1719 193.035 91.7185L195.156 90.2207C195.31 90.1155 195.48 90.0588 195.658 90.0588C195.836 90.0588 196.006 90.1155 196.16 90.2207L198.281 91.7185C198.435 91.8238 213.907 102.737 218.586 107.49C221.161 110.097 223.954 114.185 226.909 118.516C229.565 122.411 232.317 126.426 234.357 128.466C236.381 130.49 240.365 133.203 244.21 135.826C248.606 138.821 252.752 141.647 255.375 144.27C258.046 146.942 260.937 151.16 263.997 155.629C266.596 159.426 269.259 163.312 271.243 165.344C275.68 169.894 292.066 181.844 292.228 181.957L296.316 184.928C296.543 185.09 296.673 185.349 296.673 185.625C296.673 185.9 296.543 186.159 296.316 186.321L292.228 189.292C292.066 189.413 275.696 201.339 271.275 205.881C269.292 207.913 266.628 211.807 264.046 215.58C260.985 220.057 258.095 224.267 255.439 226.922C252.808 229.554 248.663 232.379 244.275 235.367C240.413 238.006 236.438 240.71 234.422 242.726C232.374 244.774 229.621 248.806 226.958 252.692C223.994 257.023 221.201 261.112 218.627 263.727C214.028 268.398 198.929 279.077 198.289 279.531L196.168 281.028C196.014 281.133 195.844 281.19 195.666 281.19L195.658 281.182ZM109.411 185.616C114.746 189.608 123.207 196.101 126.559 199.534C129.093 202.132 131.87 206.18 134.8 210.471C137.504 214.414 140.289 218.478 142.362 220.551C144.386 222.575 148.369 225.287 152.215 227.91C156.603 230.906 160.748 233.731 163.379 236.354C166.019 238.994 168.868 243.163 171.888 247.575C174.511 251.413 177.199 255.348 179.191 257.372C181.693 259.906 189.238 265.605 195.65 270.228C202.07 265.597 209.624 259.889 212.142 257.339C214.142 255.307 216.838 251.372 219.436 247.567C222.472 243.123 225.338 238.937 227.986 236.29C230.609 233.666 234.754 230.841 239.142 227.845C242.996 225.214 246.971 222.502 248.995 220.486C251.059 218.422 253.836 214.357 256.524 210.431C259.463 206.14 262.224 202.116 264.742 199.525C268.094 196.085 276.554 189.6 281.889 185.6C276.546 181.601 268.069 175.1 264.709 171.651C262.192 169.06 259.423 165.028 256.5 160.753C253.796 156.803 251.011 152.738 248.938 150.666C246.914 148.642 242.939 145.938 239.094 143.315C234.697 140.319 230.552 137.494 227.921 134.862C225.274 132.215 222.424 128.037 219.396 123.609C216.797 119.804 214.101 115.869 212.109 113.837C209.608 111.295 202.062 105.603 195.65 100.98C189.23 105.611 181.668 111.319 179.159 113.869C177.159 115.901 174.463 119.844 171.856 123.649C168.82 128.086 165.962 132.272 163.315 134.919C160.683 137.55 156.546 140.368 152.158 143.363C148.305 145.986 144.329 148.698 142.305 150.731C140.241 152.795 137.464 156.851 134.776 160.77C131.845 165.052 129.085 169.092 126.55 171.683C123.207 175.116 114.738 181.609 109.403 185.608L109.411 185.616Z" fill="#FCFAFA"/>
<path d="M195.657 280.316L193.536 278.818C192.896 278.373 177.895 267.759 173.345 263.144C170.827 260.594 168.058 256.538 165.127 252.247C162.447 248.328 159.678 244.272 157.573 242.167C155.493 240.087 151.477 237.35 147.591 234.695C143.235 231.723 139.131 228.922 136.564 226.356C133.949 223.741 131.075 219.547 128.031 215.11C125.416 211.297 122.72 207.354 120.68 205.266C116.154 200.627 99.7839 188.701 99.6139 188.588L95.5254 185.616L99.6139 182.645C99.7758 182.524 116.154 170.606 120.68 165.959C122.712 163.879 125.4 159.944 127.999 156.147C131.035 151.718 133.893 147.533 136.499 144.926C139.066 142.359 143.179 139.55 147.534 136.579C151.412 133.931 155.428 131.195 157.509 129.114C159.614 127.009 162.391 122.945 165.078 119.018C168.017 114.719 170.794 110.663 173.312 108.105C177.87 103.482 192.896 92.852 193.536 92.4067L195.657 90.9089L197.778 92.4067C198.418 92.852 213.42 103.466 217.97 108.081C220.488 110.631 223.257 114.687 226.196 118.986C228.875 122.904 231.644 126.961 233.749 129.066C235.83 131.146 239.845 133.883 243.732 136.53C248.087 139.501 252.2 142.303 254.766 144.869C257.373 147.476 260.247 151.67 263.283 156.098C265.89 159.903 268.586 163.838 270.618 165.927C275.152 170.574 291.547 182.524 291.717 182.637L295.805 185.608L291.717 188.58C291.555 188.701 275.177 200.618 270.651 205.266C268.619 207.346 265.931 211.281 263.332 215.078C260.296 219.506 257.438 223.692 254.831 226.299C252.265 228.866 248.152 231.675 243.796 234.638C239.91 237.285 235.903 240.022 233.822 242.103C231.717 244.208 228.94 248.272 226.252 252.198C223.313 256.497 220.536 260.561 218.019 263.112C213.46 267.735 198.434 278.365 197.795 278.81L195.673 280.308L195.657 280.316ZM107.969 185.616C113.312 189.6 122.453 196.562 125.942 200.141C128.42 202.683 131.18 206.707 134.095 210.957C136.815 214.924 139.633 219.029 141.762 221.166C143.843 223.247 147.858 225.983 151.736 228.631C156.092 231.602 160.205 234.403 162.779 236.978C165.362 239.56 168.204 243.714 171.199 248.11C173.822 251.947 176.534 255.914 178.583 257.995C181.513 260.966 190.541 267.629 195.657 271.313C200.782 267.629 209.833 260.942 212.764 257.963C214.821 255.874 217.541 251.907 220.164 248.061C223.168 243.665 226.009 239.512 228.6 236.921C231.166 234.355 235.279 231.553 239.635 228.582C243.521 225.935 247.537 223.198 249.617 221.118C251.739 218.996 254.54 214.9 257.252 210.941C260.158 206.699 262.903 202.691 265.372 200.149C268.862 196.57 278.002 189.608 283.345 185.625C277.994 181.633 268.837 174.654 265.34 171.068C262.862 168.526 260.118 164.51 257.203 160.268C254.491 156.301 251.682 152.204 249.553 150.075C247.472 147.994 243.456 145.258 239.578 142.61C235.223 139.639 231.11 136.838 228.543 134.271C225.961 131.689 223.119 127.535 220.123 123.147C217.5 119.31 214.788 115.343 212.732 113.262C209.801 110.291 200.774 103.628 195.657 99.9441C190.532 103.628 181.481 110.315 178.55 113.294C176.494 115.383 173.782 119.35 171.151 123.196C168.147 127.592 165.305 131.753 162.714 134.344C160.148 136.911 156.035 139.712 151.68 142.683C147.793 145.331 143.778 148.067 141.697 150.148C139.576 152.269 136.775 156.365 134.063 160.324C131.156 164.567 128.411 168.574 125.942 171.116C122.453 174.695 113.312 181.657 107.969 185.641V185.616Z" fill="#FCFAFA"/>
<path d="M289.822 285.489C289.644 285.489 289.474 285.432 289.32 285.327L287.199 283.829C286.56 283.376 271.517 272.746 266.894 268.058C264.32 265.443 261.527 261.363 258.572 257.04C255.908 253.145 253.163 249.13 251.123 247.081C249.099 245.057 245.116 242.345 241.27 239.714C236.882 236.719 232.737 233.893 230.114 231.27C227.442 228.598 224.544 224.372 221.476 219.895C218.885 216.114 216.205 212.204 214.222 210.172C209.753 205.589 193.431 193.704 193.269 193.583L189.18 190.612C188.954 190.45 188.824 190.191 188.824 189.915C188.824 189.64 188.954 189.381 189.18 189.219L193.269 186.248C193.431 186.126 209.744 174.249 214.222 169.659C216.197 167.635 218.861 163.741 221.435 159.984C224.512 155.491 227.394 151.281 230.057 148.626C232.68 146.002 236.826 143.177 241.214 140.181C245.067 137.55 249.043 134.838 251.075 132.814C253.123 130.766 255.876 126.742 258.531 122.848C261.494 118.508 264.296 114.42 266.87 111.805C271.493 107.117 286.568 96.4546 287.207 96.0012L289.328 94.5035C289.474 94.3982 289.652 94.3416 289.83 94.3416C290.009 94.3416 290.179 94.3982 290.332 94.5035L292.454 96.0012C293.093 96.4465 308.111 107.052 312.758 111.772C315.333 114.379 318.126 118.468 321.081 122.799C323.737 126.685 326.481 130.709 328.53 132.749C330.554 134.773 334.529 137.477 338.374 140.1C342.77 143.104 346.924 145.93 349.547 148.553C352.21 151.216 355.101 155.434 358.169 159.903C360.752 163.676 363.423 167.578 365.415 169.619C369.884 174.201 386.238 186.118 386.4 186.232L390.489 189.203C390.715 189.365 390.845 189.624 390.845 189.899C390.845 190.174 390.715 190.433 390.489 190.595L386.4 193.567C386.238 193.688 369.868 205.614 365.447 210.155C363.472 212.188 360.8 216.082 358.218 219.854C355.157 224.315 352.275 228.533 349.612 231.197C346.98 233.828 342.835 236.654 338.447 239.641C334.602 242.264 330.618 244.977 328.594 247.001C326.546 249.049 323.793 253.073 321.138 256.967C318.167 261.314 315.365 265.403 312.799 268.01C308.192 272.681 293.101 283.36 292.462 283.813L290.34 285.311C290.187 285.416 290.017 285.473 289.839 285.473L289.822 285.489ZM203.575 189.923C208.911 193.915 217.371 200.408 220.723 203.841C223.257 206.439 226.034 210.487 228.964 214.77C231.66 218.705 234.454 222.777 236.534 224.85C238.558 226.874 242.541 229.586 246.387 232.209C250.775 235.205 254.92 238.03 257.552 240.653C260.183 243.276 263.041 247.462 266.06 251.882C268.675 255.712 271.363 259.647 273.363 261.671C275.873 264.213 283.41 269.912 289.822 274.527C296.242 269.896 303.804 264.188 306.314 261.638C308.314 259.606 311.01 255.671 313.617 251.858C316.661 247.413 319.519 243.236 322.158 240.588C324.781 237.965 328.918 235.148 333.298 232.16C337.168 229.521 341.143 226.809 343.175 224.785C345.248 222.712 348.025 218.656 350.705 214.73C353.627 210.455 356.396 206.423 358.922 203.824C362.274 200.383 370.734 193.89 376.069 189.899C370.726 185.9 362.241 179.39 358.89 175.95C356.364 173.359 353.595 169.311 350.664 165.036C347.968 161.101 345.183 157.037 343.119 154.973C341.095 152.949 337.111 150.237 333.266 147.605C328.878 144.618 324.741 141.792 322.109 139.161C319.462 136.514 316.612 132.336 313.584 127.908C310.985 124.103 308.289 120.168 306.298 118.136C303.796 115.594 296.251 109.902 289.839 105.279C283.418 109.91 275.857 115.618 273.347 118.168C271.347 120.2 268.651 124.143 266.044 127.948C263.016 132.385 260.15 136.571 257.503 139.218C254.88 141.841 250.743 144.667 246.363 147.654C242.501 150.285 238.518 153.005 236.494 155.029C234.429 157.094 231.652 161.15 228.964 165.077C226.034 169.351 223.273 173.391 220.747 175.982C217.395 179.423 208.935 185.908 203.599 189.907L203.575 189.923Z" fill="#FCFAFA"/>
<path d="M289.824 284.623L287.702 283.125C287.063 282.68 272.061 272.066 267.511 267.451C264.993 264.901 262.224 260.845 259.293 256.546C256.614 252.627 253.845 248.571 251.74 246.466C249.659 244.386 245.643 241.649 241.757 239.002C237.402 236.03 233.289 233.229 230.722 230.663C228.107 228.048 225.233 223.854 222.189 219.417C219.574 215.604 216.878 211.669 214.838 209.573C210.312 204.934 193.942 193.008 193.772 192.895L189.684 189.924L193.772 186.952C193.934 186.831 210.312 174.913 214.838 170.266C216.87 168.186 219.558 164.251 222.157 160.454C225.193 156.025 228.051 151.84 230.658 149.233C233.224 146.666 237.337 143.857 241.693 140.894C245.579 138.246 249.586 135.51 251.667 133.429C253.772 131.324 256.549 127.26 259.237 123.334C262.176 119.035 264.952 114.978 267.47 112.42C272.028 107.797 287.055 97.1672 287.694 96.7219L289.815 95.2241L291.937 96.7219C292.576 97.1672 307.578 107.781 312.128 112.396C314.646 114.946 317.415 119.002 320.354 123.301C323.034 127.22 325.802 131.276 327.907 133.381C329.988 135.461 334.004 138.198 337.882 140.845C342.237 143.817 346.35 146.618 348.917 149.184C351.523 151.791 354.398 155.985 357.434 160.413C360.041 164.219 362.736 168.153 364.769 170.242C369.302 174.889 385.697 186.831 385.867 186.952L389.955 189.924L385.867 192.895C385.705 193.016 369.327 204.934 364.801 209.581C362.769 211.661 360.081 215.596 357.482 219.393C354.446 223.822 351.58 228.007 348.981 230.614C346.415 233.181 342.302 235.99 337.946 238.953C334.06 241.601 330.053 244.337 327.972 246.418C325.867 248.523 323.09 252.587 320.402 256.513C317.463 260.812 314.686 264.877 312.169 267.427C307.611 272.05 292.584 282.68 291.945 283.125L289.824 284.623ZM202.135 189.924C207.479 193.907 216.619 200.869 220.109 204.448C222.586 206.99 225.339 211.014 228.261 215.264C230.982 219.231 233.799 223.336 235.928 225.473C238.009 227.554 242.024 230.29 245.902 232.938C250.258 235.909 254.371 238.71 256.937 241.285C259.52 243.867 262.362 248.021 265.357 252.417C267.98 256.254 270.693 260.221 272.741 262.302C275.672 265.273 284.699 271.936 289.815 275.62C294.94 271.936 303.992 265.249 306.922 262.27C308.979 260.189 311.699 256.214 314.322 252.368C317.326 247.972 320.168 243.819 322.758 241.228C325.325 238.662 329.438 235.86 333.793 232.889C337.679 230.242 341.695 227.505 343.776 225.425C345.897 223.303 348.698 219.207 351.41 215.248C354.317 211.006 357.061 206.998 359.53 204.464C363.02 200.877 372.16 193.923 377.504 189.94C372.152 185.948 362.996 178.97 359.498 175.383C357.021 172.841 354.276 168.833 351.362 164.583C348.641 160.616 345.84 156.519 343.711 154.39C341.63 152.309 337.614 149.573 333.728 146.925C329.373 143.954 325.26 141.153 322.693 138.587C320.111 135.996 317.269 131.851 314.274 127.463C311.65 123.625 308.938 119.658 306.882 117.577C303.951 114.606 294.924 107.943 289.807 104.259C284.683 107.943 275.631 114.63 272.7 117.61C270.644 119.698 267.932 123.665 265.301 127.511C262.297 131.907 259.455 136.069 256.865 138.659C254.298 141.226 250.185 144.027 245.83 146.998C241.944 149.646 237.928 152.382 235.847 154.463C233.726 156.584 230.925 160.681 228.213 164.64C225.306 168.882 222.562 172.889 220.092 175.432C216.603 179.01 207.463 185.973 202.119 189.956L202.135 189.924Z" fill="#FCFAFA"/>
<path d="M195.659 25.2579C188.793 25.2579 183.207 19.6717 183.207 12.8062C183.207 5.94077 188.793 0.354492 195.659 0.354492C202.524 0.354492 208.11 5.94077 208.11 12.8062C208.11 19.6717 202.524 25.2579 195.659 25.2579Z" fill="#FCFAFA"/>
<path d="M195.658 24.3918C202.056 24.3918 207.243 19.2048 207.243 12.8064C207.243 6.40792 202.056 1.22095 195.658 1.22095C189.259 1.22095 184.072 6.40792 184.072 12.8064C184.072 19.2048 189.259 24.3918 195.658 24.3918Z" fill="#FCFAFA"/>
<path d="M195.659 379.265C188.793 379.265 183.207 373.679 183.207 366.814C183.207 359.948 188.793 354.362 195.659 354.362C202.524 354.362 208.11 359.948 208.11 366.814C208.11 373.679 202.524 379.265 195.659 379.265Z" fill="#FCFAFA"/>
<path d="M195.658 378.399C202.056 378.399 207.243 373.212 207.243 366.814C207.243 360.415 202.056 355.229 195.658 355.229C189.259 355.229 184.072 360.415 184.072 366.814C184.072 373.212 189.259 378.399 195.658 378.399Z" fill="#FCFAFA"/>
<path d="M195.659 200.367C188.793 200.367 183.207 194.781 183.207 187.916C183.207 181.05 188.793 175.464 195.659 175.464C202.524 175.464 208.11 181.05 208.11 187.916C208.11 194.781 202.524 200.367 195.659 200.367Z" fill="#FCFAFA"/>
<path d="M195.658 199.501C202.056 199.501 207.243 194.314 207.243 187.916C207.243 181.517 202.056 176.33 195.658 176.33C189.259 176.33 184.072 181.517 184.072 187.916C184.072 194.314 189.259 199.501 195.658 199.501Z" fill="#FCFAFA"/>
<path d="M12.7603 200.367C5.89487 200.367 0.308594 194.781 0.308594 187.916C0.308594 181.05 5.89487 175.464 12.7603 175.464C19.6258 175.464 25.212 181.05 25.212 187.916C25.212 194.781 19.6258 200.367 12.7603 200.367Z" fill="#FCFAFA"/>
<path d="M12.7612 199.501C19.1597 199.501 24.3467 194.314 24.3467 187.916C24.3467 181.517 19.1597 176.33 12.7612 176.33C6.36276 176.33 1.17578 181.517 1.17578 187.916C1.17578 194.314 6.36276 199.501 12.7612 199.501Z" fill="#FCFAFA"/>
<path d="M378.547 199.687C371.682 199.687 366.096 194.101 366.096 187.235C366.096 180.37 371.682 174.784 378.547 174.784C385.413 174.784 390.999 180.37 390.999 187.235C390.999 194.101 385.413 199.687 378.547 199.687Z" fill="#FCFAFA"/>
<path d="M378.548 198.821C384.947 198.821 390.134 193.634 390.134 187.236C390.134 180.837 384.947 175.65 378.548 175.65C372.15 175.65 366.963 180.837 366.963 187.236C366.963 193.634 372.15 198.821 378.548 198.821Z" fill="#FCFAFA"/>
<path d="M289.913 199.687C283.047 199.687 277.461 194.101 277.461 187.235C277.461 180.37 283.047 174.784 289.913 174.784C296.778 174.784 302.364 180.37 302.364 187.235C302.364 194.101 296.778 199.687 289.913 199.687Z" fill="#FCFAFA"/>
<path d="M289.914 198.821C296.312 198.821 301.499 193.634 301.499 187.236C301.499 180.837 296.312 175.65 289.914 175.65C283.515 175.65 278.328 180.837 278.328 187.236C278.328 193.634 283.515 198.821 289.914 198.821Z" fill="#FCFAFA"/>
<path d="M101.776 199.687C94.9105 199.687 89.3242 194.101 89.3242 187.235C89.3242 180.37 94.9105 174.784 101.776 174.784C108.641 174.784 114.228 180.37 114.228 187.235C114.228 194.101 108.641 199.687 101.776 199.687Z" fill="#FCFAFA"/>
<path d="M101.777 198.821C108.175 198.821 113.362 193.634 113.362 187.236C113.362 180.837 108.175 175.65 101.777 175.65C95.3784 175.65 90.1914 180.837 90.1914 187.236C90.1914 193.634 95.3784 198.821 101.777 198.821Z" fill="#FCFAFA"/>
<path d="M195.659 110.412C188.793 110.412 183.207 104.826 183.207 97.9605C183.207 91.095 188.793 85.5088 195.659 85.5088C202.524 85.5088 208.11 91.095 208.11 97.9605C208.11 104.826 202.524 110.412 195.659 110.412Z" fill="#FCFAFA"/>
<path d="M195.658 109.538C202.056 109.538 207.243 104.351 207.243 97.9524C207.243 91.5539 202.056 86.3669 195.658 86.3669C189.259 86.3669 184.072 91.5539 184.072 97.9524C184.072 104.351 189.259 109.538 195.658 109.538Z" fill="#FCFAFA"/>
<path d="M101.776 110.979C94.9105 110.979 89.3242 105.393 89.3242 98.5274C89.3242 91.662 94.9105 86.0757 101.776 86.0757C108.641 86.0757 114.228 91.662 114.228 98.5274C114.228 105.393 108.641 110.979 101.776 110.979Z" fill="#FCFAFA"/>
<path d="M101.777 110.113C108.175 110.113 113.362 104.926 113.362 98.5273C113.362 92.1289 108.175 86.9419 101.777 86.9419C95.3784 86.9419 90.1914 92.1289 90.1914 98.5273C90.1914 104.926 95.3784 110.113 101.777 110.113Z" fill="#FCFAFA"/>
<path d="M290.956 112.42C284.09 112.42 278.504 106.834 278.504 99.9683C278.504 93.1029 284.09 87.5166 290.956 87.5166C297.821 87.5166 303.407 93.1029 303.407 99.9683C303.407 106.834 297.821 112.42 290.956 112.42Z" fill="#FCFAFA"/>
<path d="M290.957 111.554C297.355 111.554 302.542 106.367 302.542 99.9682C302.542 93.5698 297.355 88.3828 290.957 88.3828C284.558 88.3828 279.371 93.5698 279.371 99.9682C279.371 106.367 284.558 111.554 290.957 111.554Z" fill="#FCFAFA"/>
<path d="M101.776 292.168C94.9105 292.168 89.3242 286.582 89.3242 279.717C89.3242 272.851 94.9105 267.265 101.776 267.265C108.641 267.265 114.228 272.851 114.228 279.717C114.228 286.582 108.641 292.168 101.776 292.168Z" fill="#FCFAFA"/>
<path d="M101.777 291.302C108.175 291.302 113.362 286.115 113.362 279.717C113.362 273.318 108.175 268.131 101.777 268.131C95.3784 268.131 90.1914 273.318 90.1914 279.717C90.1914 286.115 95.3784 291.302 101.777 291.302Z" fill="#FCFAFA"/>
<path d="M290.956 291.982C284.09 291.982 278.504 286.396 278.504 279.53C278.504 272.665 284.09 267.079 290.956 267.079C297.821 267.079 303.407 272.665 303.407 279.53C303.407 286.396 297.821 291.982 290.956 291.982Z" fill="#FCFAFA"/>
<path d="M290.957 291.116C297.355 291.116 302.542 285.929 302.542 279.531C302.542 273.132 297.355 267.945 290.957 267.945C284.558 267.945 279.371 273.132 279.371 279.531C279.371 285.929 284.558 291.116 290.957 291.116Z" fill="#FCFAFA"/>
<path d="M195.659 283.756C188.793 283.756 183.207 278.17 183.207 271.305C183.207 264.439 188.793 258.853 195.659 258.853C202.524 258.853 208.11 264.439 208.11 271.305C208.11 278.17 202.524 283.756 195.659 283.756Z" fill="#FCFAFA"/>
<path d="M195.658 282.89C202.056 282.89 207.243 277.703 207.243 271.305C207.243 264.906 202.056 259.719 195.658 259.719C189.259 259.719 184.072 264.906 184.072 271.305C184.072 277.703 189.259 282.89 195.658 282.89Z" fill="#FCFAFA"/>
<path d="M498.98 231.49C491.49 231.49 484.55 229.65 478.17 225.97C471.79 222.29 466.66 216.98 462.8 210.04C458.93 203.11 457 194.73 457 184.91V182.15C457 172.45 458.9 164.1 462.71 157.11C466.51 150.11 471.61 144.77 477.99 141.09C484.37 137.41 491.37 135.57 498.98 135.57C504.87 135.57 509.81 136.31 513.8 137.78C517.79 139.25 521.07 141.13 523.65 143.4C526.23 145.67 528.19 148.03 529.54 150.49H532.49V100.04H551.46V228.93H532.86V216.04H529.91C527.58 219.97 524.05 223.53 519.32 226.72C514.59 229.91 507.81 231.51 498.97 231.51L498.98 231.49ZM504.32 214.92C512.54 214.92 519.33 212.28 524.67 207C530.01 201.72 532.68 194.17 532.68 184.35V182.69C532.68 172.99 530.04 165.51 524.76 160.23C519.48 154.95 512.67 152.31 504.32 152.31C495.97 152.31 489.5 154.95 484.16 160.23C478.82 165.51 476.15 173 476.15 182.69V184.35C476.15 194.17 478.82 201.72 484.16 207C489.5 212.28 496.22 214.92 504.32 214.92Z" fill="#FCFAFA"/>
<path d="M621.059 231.49C611.849 231.49 603.809 229.56 596.939 225.69C590.059 221.82 584.689 216.36 580.829 209.3C576.959 202.24 575.029 194.05 575.029 184.72V182.51C575.029 173.06 576.929 164.8 580.739 157.74C584.539 150.68 589.849 145.22 596.669 141.35C603.479 137.48 611.369 135.55 620.329 135.55C629.289 135.55 636.689 137.48 643.249 141.35C649.819 145.22 654.939 150.59 658.629 157.46C662.309 164.34 664.149 172.38 664.149 181.58V188.76H594.359C594.599 196.74 597.269 203.09 602.369 207.82C607.459 212.55 613.809 214.91 621.429 214.91C628.549 214.91 633.919 213.32 637.539 210.12C641.159 206.93 643.949 203.25 645.919 199.07L661.569 207.17C659.849 210.61 657.359 214.23 654.109 218.03C650.859 221.84 646.589 225.03 641.309 227.6C636.029 230.18 629.279 231.47 621.059 231.47V231.49ZM594.539 174.22H644.809C644.319 167.35 641.859 161.97 637.439 158.11C633.019 154.24 627.249 152.31 620.129 152.31C613.009 152.31 607.209 154.24 602.729 158.11C598.249 161.98 595.519 167.35 594.539 174.22Z" fill="#FCFAFA"/>
<path d="M686.98 228.91V138.13H705.58V148.81H708.53C710 145.01 712.36 142.21 715.62 140.43C718.87 138.65 722.89 137.76 727.68 137.76H738.54V154.88H726.94C720.8 154.88 715.77 156.57 711.84 159.94C707.91 163.32 705.95 168.5 705.95 175.5V228.9H686.99L686.98 228.91Z" fill="#FCFAFA"/>
<path d="M758.24 228.91V138.13H777.2V228.91H758.24Z" fill="#FCFAFA"/>
<path d="M826.371 228.91L795.801 138.13H815.871L839.991 214.91H842.941L867.061 138.13H887.131L856.561 228.91H826.361H826.371Z" fill="#FCFAFA"/>
<path d="M931.14 231.49C924.63 231.49 918.83 230.39 913.74 228.18C908.65 225.97 904.59 222.72 901.59 218.42C898.58 214.12 897.08 208.91 897.08 202.77C897.08 196.63 898.58 191.33 901.59 187.21C904.6 183.1 908.71 180 913.93 177.91C919.15 175.82 925.07 174.78 931.7 174.78H959.32V168.89C959.32 163.61 957.72 159.38 954.53 156.19C951.34 153 946.43 151.4 939.8 151.4C933.17 151.4 928.32 152.94 924.88 156C921.44 159.07 919.17 163.06 918.07 167.97L900.39 162.26C901.86 157.35 904.22 152.9 907.48 148.91C910.73 144.92 915.06 141.7 920.46 139.24C925.86 136.79 932.37 135.56 939.98 135.56C951.77 135.56 961.03 138.57 967.78 144.58C974.53 150.6 977.91 159.13 977.91 170.18V207.56C977.91 211.24 979.63 213.08 983.07 213.08H990.8V228.92H976.62C972.32 228.92 968.82 227.81 966.12 225.61C963.42 223.4 962.07 220.39 962.07 216.59V216.04H959.31C958.33 217.88 956.85 220.03 954.89 222.48C952.93 224.94 950.04 227.05 946.24 228.83C942.43 230.61 937.4 231.5 931.14 231.5V231.49ZM933.9 215.84C941.51 215.84 947.65 213.66 952.31 209.3C956.97 204.94 959.31 198.96 959.31 191.35V189.51H932.8C927.77 189.51 923.71 190.59 920.65 192.73C917.58 194.88 916.05 198.04 916.05 202.21C916.05 206.38 917.64 209.7 920.84 212.15C924.03 214.61 928.39 215.83 933.91 215.83L933.9 215.84Z" fill="#FCFAFA"/>
</svg>
